<svg width="563" height="572" viewBox="0 0 563 572" fill="none" xmlns="http://www.w3.org/2000/svg">
<path d="M479.486 -94.2613L380.342 -182.433C368.498 -192.966 352.081 -196.607 337.035 -191.199L210.726 -150.095C196.07 -145.124 184.781 -132.462 181.53 -117.347L154.804 12.3188C151.603 28.26 157.12 44.1263 168.965 54.6601L268.547 143.221C280.392 153.755 296.809 157.396 311.855 151.988L437.725 110.494C452.381 105.523 463.671 92.8603 466.921 77.7459L493.598 -52.7469C496.848 -67.8612 491.331 -83.7276 479.486 -94.2613Z" fill="#014751" fill-opacity="0.1"/>
<path d="M69.0259 594.507L171.54 418.309C183.788 397.259 184.237 371.447 171.464 350.477L70.7033 173.108C58.7081 152.589 36.1485 139.496 12.3596 139.247L-191.369 138.857C-216.39 138.936 -238.62 152.106 -250.868 173.156L-353.836 350.134C-366.083 371.184 -366.532 396.995 -353.759 417.966L-252.545 594.555C-240.55 615.074 -217.99 628.167 -194.201 628.416L10.7588 628.479C34.5477 628.727 56.7786 615.557 69.0259 594.507Z" fill="#014751" fill-opacity="0.1"/>
</svg>
