<svg width="47" height="47" viewBox="0 0 47 47" fill="none" xmlns="http://www.w3.org/2000/svg">
<rect x="0.5" y="0.5" width="46" height="46" rx="23" fill="#014751" fill-opacity="0.08"/>
<path d="M27.1919 25.032L28.8868 24.6879C29.0283 24.6577 29.1552 24.58 29.2464 24.4677C29.3376 24.3554 29.3876 24.2153 29.3881 24.0706V22.9294C29.3875 22.7845 29.3374 22.6442 29.2459 22.5319C29.1545 22.4195 29.0273 22.3418 28.8856 22.3117L27.1919 21.9682L28.1398 20.5341C28.2223 20.4132 28.2599 20.2673 28.2462 20.1216C28.2325 19.9759 28.1683 19.8396 28.0648 19.7362L27.2586 18.9306C27.1564 18.8272 27.0214 18.7626 26.8768 18.7481C26.7321 18.7335 26.587 18.7698 26.4663 18.8508L25.027 19.8023L24.6824 18.1064C24.6518 17.9652 24.5739 17.8387 24.4617 17.7478C24.3495 17.6569 24.2096 17.6069 24.0652 17.6062H22.9237C22.7786 17.6068 22.6381 17.6572 22.5257 17.749C22.4132 17.8407 22.3357 17.9683 22.3059 18.1103L21.9623 19.8027L20.5288 18.8552C20.4072 18.773 20.2608 18.7356 20.1147 18.7493C19.9685 18.7629 19.8316 18.8269 19.7274 18.9302L18.9295 19.731C18.8235 19.8323 18.7567 19.9678 18.7412 20.1136C18.7256 20.2594 18.7623 20.406 18.8446 20.5273L19.7944 21.968L18.1023 22.3119C17.9607 22.3421 17.8337 22.4198 17.7425 22.5321C17.6512 22.6445 17.6011 22.7847 17.6006 22.9294V24.0706C17.6012 24.2157 17.6516 24.3562 17.7433 24.4686C17.835 24.5811 17.9625 24.6587 18.1045 24.6885L19.7945 25.032L18.8492 26.4659C18.7653 26.5862 18.7267 26.7322 18.7404 26.8782C18.754 27.0242 18.8189 27.1606 18.9236 27.2632L19.733 28.0751C19.8361 28.1759 19.9708 28.2383 20.1144 28.2518C20.258 28.2653 20.4019 28.2292 20.5221 28.1494L21.962 27.1977L22.3063 28.8921C22.3365 29.0336 22.4142 29.1606 22.5265 29.2519C22.6388 29.3432 22.779 29.3932 22.9238 29.3938H24.0652C24.2102 29.3929 24.3506 29.3424 24.463 29.2507C24.5754 29.1591 24.6531 29.0317 24.6832 28.8899L25.0266 27.1977L26.4607 28.1458C26.5815 28.2283 26.7273 28.2659 26.8729 28.2521C27.0184 28.2383 27.1546 28.174 27.2578 28.0704L28.0652 27.2632C28.1681 27.161 28.2322 27.0262 28.2465 26.8819C28.2609 26.7375 28.2245 26.5927 28.1437 26.4723L27.1919 25.032ZM26.7898 27.3886L25.3028 26.4056C25.2155 26.3489 25.1156 26.3146 25.0119 26.3058C24.9082 26.2969 24.8039 26.3137 24.7082 26.3548C24.5993 26.3899 24.5015 26.4529 24.4245 26.5377C24.3476 26.6224 24.2943 26.7259 24.27 26.8377L23.9163 28.5809H23.0726L22.7173 26.8335C22.6901 26.7287 22.6389 26.6316 22.5677 26.5499C22.4966 26.4682 22.4074 26.4041 22.3073 26.3628C22.2071 26.3214 22.0988 26.3038 21.9907 26.3115C21.8826 26.3191 21.7778 26.3518 21.6845 26.4068L20.1974 27.3896L19.6053 26.7956L20.579 25.3184C20.6358 25.225 20.6699 25.1197 20.6787 25.0107C20.6875 24.9018 20.6707 24.7924 20.6296 24.6911C20.5886 24.5899 20.5245 24.4996 20.4424 24.4275C20.3602 24.3554 20.2624 24.3036 20.1567 24.276L18.4135 23.9217V23.0782L20.1608 22.723C20.2657 22.6958 20.3627 22.6446 20.4443 22.5734C20.5259 22.5022 20.5899 22.413 20.631 22.3128C20.6722 22.2127 20.6895 22.1043 20.6815 21.9963C20.6736 21.8883 20.6406 21.7836 20.5852 21.6906L19.6053 20.2044L20.1971 19.6104L21.6861 20.5944C21.7795 20.6494 21.8845 20.6819 21.9927 20.6894C22.1009 20.6968 22.2093 20.679 22.3094 20.6374C22.4095 20.5957 22.4986 20.5313 22.5696 20.4494C22.6405 20.3674 22.6915 20.27 22.7183 20.1649L23.0728 18.4192H23.9163L24.2735 20.18C24.2971 20.2796 24.3445 20.372 24.4116 20.4493C24.4788 20.5266 24.5636 20.5865 24.659 20.6238C24.7596 20.676 24.8723 20.7007 24.9856 20.6954C25.0988 20.69 25.2087 20.6549 25.304 20.5934L26.7898 19.6114L27.3836 20.2048L26.4043 21.685C26.348 21.7784 26.3143 21.8836 26.3058 21.9924C26.2974 22.1011 26.3145 22.2104 26.3558 22.3113C26.3972 22.4122 26.4615 22.5021 26.5437 22.5738C26.626 22.6454 26.7238 22.6969 26.8295 22.724L28.5752 23.0779V23.9217L26.8215 24.2776C26.717 24.3053 26.6204 24.3568 26.5393 24.4282C26.4581 24.4996 26.3947 24.5888 26.3539 24.6889C26.3131 24.789 26.2962 24.8972 26.3044 25.0049C26.3126 25.1127 26.3457 25.2171 26.4011 25.3099L27.3832 26.7956L26.7898 27.3886Z" fill="black"/>
<path d="M23.4933 21.2644C22.9006 21.2651 22.3323 21.5008 21.9132 21.9199C21.4941 22.339 21.2583 22.9073 21.2577 23.5C21.3626 26.4587 25.6242 26.4581 25.7286 23.5C25.728 22.9073 25.4923 22.3391 25.0732 21.92C24.6541 21.5009 24.0859 21.2651 23.4933 21.2644ZM23.4933 24.9226C23.1179 24.9197 22.7589 24.7685 22.4946 24.502C22.2302 24.2355 22.0819 23.8753 22.0819 23.5C22.0819 23.1246 22.2302 22.7645 22.4946 22.498C22.759 22.2315 23.1179 22.0803 23.4933 22.0773C23.8686 22.0803 24.2276 22.2315 24.492 22.498C24.7563 22.7645 24.9047 23.1246 24.9047 23.5C24.9047 23.8754 24.7563 24.2355 24.492 24.502C24.2276 24.7685 23.8686 24.9197 23.4933 24.9226ZM28.5501 15.3951H29.5203C29.6172 15.7043 29.8216 15.9686 30.0966 16.1401C30.3715 16.3116 30.6988 16.379 31.0192 16.33C31.3395 16.2811 31.6317 16.1191 31.8429 15.8733C32.0542 15.6275 32.1704 15.3143 32.1706 14.9902C32.1708 14.6662 32.0549 14.3527 31.844 14.1067C31.6331 13.8607 31.3411 13.6983 31.0208 13.649C30.7005 13.5997 30.3732 13.6667 30.098 13.8378C29.8228 14.009 29.6181 14.273 29.5208 14.5821L28.5501 14.5821C28.4432 14.5835 28.3412 14.627 28.2662 14.7031C28.1911 14.7791 28.149 14.8817 28.149 14.9886C28.149 15.0954 28.1911 15.198 28.2662 15.2741C28.3412 15.3502 28.4432 15.3936 28.5501 15.3951ZM31.3577 14.9894C31.3555 15.133 31.2968 15.27 31.1943 15.3707C31.0918 15.4714 30.9538 15.5277 30.8101 15.5274C30.6665 15.5271 30.5287 15.4702 30.4267 15.3691C30.3246 15.2679 30.2665 15.1307 30.265 14.987C30.2674 14.8435 30.3262 14.7068 30.4287 14.6063C30.5311 14.5058 30.669 14.4497 30.8125 14.45C30.956 14.4503 31.0936 14.5071 31.1956 14.608C31.2976 14.7089 31.3558 14.8459 31.3577 14.9894ZM25.6151 18.1264C25.6685 18.1264 25.7213 18.1159 25.7707 18.0955C25.82 18.0751 25.8648 18.0451 25.9025 18.0074C25.9403 17.9696 25.9702 17.9248 25.9906 17.8755C26.0111 17.8262 26.0216 17.7733 26.0216 17.7199V15.7527C26.0212 15.6584 26.0582 15.5678 26.1245 15.5007C26.1908 15.4337 26.281 15.3957 26.3752 15.3951H26.9242C27.032 15.3951 27.1354 15.3522 27.2116 15.276C27.2879 15.1998 27.3307 15.0964 27.3307 14.9886C27.3307 14.8808 27.2879 14.7774 27.2116 14.7012C27.1354 14.6249 27.032 14.5821 26.9242 14.5821H26.3752C26.0654 14.583 25.7686 14.7067 25.5499 14.9261C25.3312 15.1456 25.2084 15.4428 25.2086 15.7527V17.7199C25.2086 17.7733 25.2191 17.8262 25.2396 17.8755C25.26 17.9248 25.2899 17.9696 25.3277 18.0074C25.3654 18.0451 25.4102 18.0751 25.4595 18.0955C25.5088 18.1159 25.5617 18.1264 25.6151 18.1264ZM18.563 31.605H17.4666C17.3697 31.2957 17.1652 31.0314 16.8903 30.8599C16.6153 30.6884 16.2881 30.621 15.9677 30.67C15.6474 30.7189 15.3552 30.8809 15.1439 31.1267C14.9327 31.3724 14.8165 31.6857 14.8163 32.0098C14.8161 32.3338 14.932 32.6472 15.1429 32.8933C15.3538 33.1393 15.6458 33.3017 15.9661 33.351C16.2864 33.4003 16.6137 33.3333 16.8889 33.1621C17.164 32.991 17.3688 32.7269 17.4661 32.4178L18.563 32.4179C18.6698 32.4163 18.7716 32.3728 18.8466 32.2967C18.9215 32.2207 18.9635 32.1182 18.9635 32.0114C18.9635 31.9046 18.9215 31.8022 18.8466 31.7261C18.7716 31.6501 18.6698 31.6065 18.563 31.605ZM15.6292 32.0106C15.6314 31.8669 15.6901 31.7299 15.7926 31.6292C15.8951 31.5285 16.0331 31.4723 16.1768 31.4726C16.3204 31.4729 16.4582 31.5298 16.5602 31.6309C16.6623 31.7321 16.7204 31.8693 16.7219 32.013C16.7197 32.1566 16.661 32.2936 16.5586 32.3943C16.4561 32.495 16.3181 32.5513 16.1744 32.551C16.0307 32.5507 15.893 32.4938 15.7909 32.3926C15.6889 32.2915 15.6308 32.1542 15.6292 32.0106ZM21.3716 28.8736C21.2638 28.8736 21.1604 28.9164 21.0842 28.9926C21.008 29.0689 20.9651 29.1722 20.9651 29.2801V31.2473C20.9656 31.3416 20.9286 31.4322 20.8624 31.4992C20.7961 31.5663 20.7059 31.6043 20.6117 31.605H20.1889C20.1353 31.6046 20.0822 31.6149 20.0326 31.6352C19.983 31.6554 19.9379 31.6853 19.8998 31.7231C19.8618 31.7609 19.8316 31.8058 19.8111 31.8553C19.7905 31.9048 19.7799 31.9578 19.7799 32.0114C19.7799 32.065 19.7905 32.1181 19.8111 32.1675C19.8316 32.217 19.8618 32.262 19.8998 32.2997C19.9379 32.3375 19.983 32.3674 20.0326 32.3877C20.0822 32.4079 20.1353 32.4182 20.1889 32.4179H20.6116C20.9214 32.417 21.2182 32.2932 21.4369 32.0738C21.6556 31.8543 21.7783 31.5571 21.7781 31.2473V29.2801C21.778 29.1723 21.7352 29.0689 21.659 28.9927C21.5828 28.9164 21.4794 28.8736 21.3716 28.8736ZM33.515 19.6757C33.2265 19.6766 32.9459 19.7696 32.7138 19.941C32.4817 20.1124 32.3103 20.3533 32.2245 20.6287H29.0363C28.9296 20.6303 28.8277 20.6738 28.7528 20.7499C28.6779 20.8259 28.6359 20.9284 28.6359 21.0352C28.6359 21.142 28.6779 21.2445 28.7528 21.3205C28.8277 21.3966 28.9296 21.4401 29.0364 21.4417H32.2245C32.3001 21.6807 32.4406 21.8942 32.6302 22.0582C32.8198 22.2223 33.0512 22.3306 33.2987 22.3711C33.5462 22.4116 33.8 22.3828 34.0321 22.2877C34.2641 22.1927 34.4653 22.0352 34.6132 21.8328C34.7612 21.6303 34.8501 21.3908 34.8702 21.1408C34.8903 20.8909 34.8407 20.6402 34.7269 20.4168C34.6131 20.1933 34.4396 20.0058 34.2257 19.8749C34.0118 19.7441 33.7658 19.6751 33.515 19.6757ZM33.515 21.5816C33.3714 21.5795 33.2344 21.5211 33.1336 21.4188C33.0328 21.3165 32.9762 21.1787 32.9762 21.0351C32.9762 20.8915 33.0328 20.7536 33.1336 20.6514C33.2344 20.5491 33.3715 20.4906 33.5151 20.4886C33.6587 20.4906 33.7957 20.5491 33.8965 20.6514C33.9973 20.7536 34.0539 20.8915 34.0539 21.0351C34.0539 21.1787 33.9973 21.3166 33.8965 21.4188C33.7957 21.5211 33.6586 21.5796 33.515 21.5816ZM18.3568 25.9648C18.3568 25.857 18.314 25.7536 18.2378 25.6774C18.1615 25.6012 18.0582 25.5584 17.9504 25.5583H14.7624C14.6652 25.2483 14.4602 24.9832 14.1845 24.8113C13.9088 24.6393 13.5806 24.5717 13.2594 24.6209C12.9382 24.67 12.6452 24.8326 12.4335 25.0791C12.2219 25.3257 12.1055 25.6399 12.1055 25.9648C12.1055 26.2897 12.2219 26.6039 12.4335 26.8505C12.6452 27.097 12.9382 27.2596 13.2594 27.3087C13.5806 27.3578 13.9088 27.2903 14.1845 27.1183C14.4602 26.9464 14.6652 26.6813 14.7624 26.3712H17.9504C18.0582 26.3712 18.1615 26.3284 18.2378 26.2522C18.314 26.176 18.3568 26.0726 18.3568 25.9648ZM13.4719 26.5114C13.3283 26.5093 13.1913 26.4509 13.0904 26.3486C12.9896 26.2463 12.9331 26.1085 12.9331 25.9649C12.9331 25.8213 12.9896 25.6834 13.0904 25.5812C13.1913 25.4789 13.3283 25.4205 13.4719 25.4184C13.6155 25.4205 13.7525 25.4789 13.8533 25.5812C13.9542 25.6835 14.0107 25.8213 14.0107 25.9649C14.0107 26.1085 13.9541 26.2464 13.8533 26.3486C13.7525 26.4509 13.6155 26.5094 13.4719 26.5114ZM15.484 17.3281V19.7846C15.4843 20.0946 15.6076 20.3917 15.8267 20.6109C16.0459 20.83 16.343 20.9533 16.6529 20.9536H18.1129C18.2197 20.9521 18.3216 20.9086 18.3965 20.8325C18.4715 20.7564 18.5135 20.6539 18.5135 20.5471C18.5135 20.4403 18.4715 20.3378 18.3965 20.2618C18.3215 20.1857 18.2197 20.1422 18.1129 20.1407H16.6529C16.5585 20.1405 16.4681 20.103 16.4013 20.0363C16.3346 19.9695 16.297 19.879 16.2969 19.7846V17.3291C16.6061 17.2323 16.8705 17.0281 17.0422 16.7532C17.2138 16.4784 17.2814 16.1512 17.2326 15.8308C17.1839 15.5105 17.0221 15.2182 16.7764 15.0069C16.5308 14.7955 16.2176 14.6791 15.8936 14.6788C15.5696 14.6784 15.2561 14.794 15.01 15.0048C14.7638 15.2155 14.6013 15.5074 14.5518 15.8277C14.5023 16.1479 14.5691 16.4752 14.7401 16.7505C14.911 17.0257 15.1749 17.2306 15.484 17.3281ZM15.892 15.4917C16.0356 15.4938 16.1727 15.5524 16.2734 15.6547C16.3742 15.7571 16.4305 15.895 16.4303 16.0387C16.4301 16.1823 16.3733 16.3201 16.2723 16.4222C16.1712 16.5243 16.034 16.5824 15.8904 16.5841C15.7468 16.582 15.6097 16.5234 15.509 16.421C15.4082 16.3187 15.3519 16.1807 15.3521 16.0371C15.3523 15.8934 15.4091 15.7557 15.5101 15.6536C15.6112 15.5515 15.7484 15.4934 15.892 15.4917ZM31.5029 29.6718V27.2154C31.5026 26.9054 31.3793 26.6083 31.1602 26.3891C30.941 26.17 30.6439 26.0467 30.3339 26.0464H28.874C28.7672 26.0479 28.6653 26.0914 28.5904 26.1675C28.5154 26.2435 28.4734 26.346 28.4734 26.4528C28.4734 26.5596 28.5154 26.6621 28.5904 26.7382C28.6653 26.8143 28.7672 26.8578 28.874 26.8593H30.3339C30.4284 26.8594 30.5189 26.8969 30.5856 26.9637C30.6524 27.0305 30.6899 27.121 30.69 27.2154V29.6709C30.3807 29.7676 30.1163 29.9719 29.9447 30.2467C29.773 30.5215 29.7055 30.8487 29.7542 31.1691C29.8029 31.4894 29.9648 31.7817 30.2104 31.9931C30.456 32.2044 30.7692 32.3208 31.0932 32.3212C31.4173 32.3216 31.7307 32.206 31.9769 31.9952C32.223 31.7845 32.3855 31.4926 32.4351 31.1724C32.4846 30.8521 32.4178 30.5248 32.2468 30.2495C32.0758 29.9743 31.8119 29.7693 31.5029 29.6718ZM31.0949 31.5083C30.9512 31.5063 30.8141 31.4478 30.7133 31.3454C30.6124 31.243 30.556 31.105 30.5562 30.9613C30.5565 30.8176 30.6133 30.6798 30.7144 30.5777C30.8155 30.4756 30.9528 30.4175 31.0965 30.4159C31.2402 30.4179 31.3773 30.4764 31.4781 30.5788C31.5789 30.6812 31.6354 30.8192 31.6351 30.9629C31.6349 31.1066 31.5781 31.2444 31.477 31.3465C31.3758 31.4486 31.2386 31.5067 31.0949 31.5083Z" fill="black"/>
</svg>
