<svg width="47" height="46" viewBox="0 0 47 46" fill="none" xmlns="http://www.w3.org/2000/svg">
<rect x="0.5" width="46" height="46" rx="23" fill="#014751" fill-opacity="0.08"/>
<path fill-rule="evenodd" clip-rule="evenodd" d="M15.2889 18.459C15.6336 18.459 15.913 18.7387 15.913 19.082C15.913 19.4258 15.6336 19.7056 15.2889 19.7056C14.9441 19.7056 14.6647 19.4259 14.6647 19.082C14.6647 18.7387 14.9441 18.459 15.2889 18.459ZM18.4633 14.7256C18.8051 14.7256 19.0844 15.005 19.0844 15.3486C19.0844 15.6919 18.8051 15.9715 18.4633 15.9715C18.1185 15.9715 17.8391 15.6919 17.8391 15.3486C17.8391 15.005 18.1184 14.7256 18.4633 14.7256ZM22.8681 16.8677C23.2129 16.8677 23.4923 17.1471 23.4923 17.4907C23.4923 17.8345 23.2129 18.1143 22.8681 18.1143C22.5263 18.1143 22.2469 17.8345 22.2469 17.4907C22.2469 17.1471 22.5263 16.8677 22.8681 16.8677ZM26.3427 13.4125C26.6874 13.4125 26.9668 13.6919 26.9668 14.0354C26.9668 14.3793 26.6874 14.6584 26.3427 14.6584C26.0009 14.6584 25.7215 14.3794 25.7215 14.0354C25.7215 13.6918 26.0009 13.4125 26.3427 13.4125ZM31.0418 12.0179C31.3836 12.0179 31.663 12.2976 31.663 12.6415C31.663 12.9851 31.3836 13.2645 31.0418 13.2645C30.697 13.2645 30.4176 12.9851 30.4176 12.6415C30.4176 12.2975 30.697 12.0179 31.0418 12.0179ZM15.2889 20.4139C16.356 20.4139 16.9893 19.2141 16.3886 18.3339L17.9015 16.5559C18.437 16.8067 19.074 16.6689 19.4619 16.228L21.5603 17.2484C21.4059 18.0669 22.0387 18.8228 22.8681 18.8228C23.8875 18.8228 24.5228 17.7265 24.0303 16.8373L25.6828 15.1913C26.5481 15.6855 27.6742 15.0904 27.6742 14.0098L29.9123 13.3459C30.1471 13.7221 30.5662 13.973 31.0417 13.973C31.7759 13.973 32.3733 13.3756 32.3733 12.6415C32.3733 11.907 31.7759 11.3093 31.0417 11.3093C30.3038 11.3093 29.7102 11.8997 29.7102 12.667L27.472 13.3307C27.2373 12.9547 26.8181 12.7039 26.3426 12.7039C25.3168 12.7039 24.6862 13.8159 25.1834 14.6893L23.5279 16.3348C22.9803 16.0188 22.2905 16.1384 21.8694 16.6118L19.771 15.5908C19.9257 14.7735 19.2933 14.017 18.4632 14.017C17.3845 14.017 16.7694 15.2304 17.3605 16.0967L15.8506 17.8747C14.9618 17.4656 13.9572 18.1146 13.9572 19.082C13.9573 19.8164 14.5547 20.4139 15.2889 20.4139ZM33.3096 26.4612C33.3096 26.7243 33.0956 26.9386 32.8341 26.9386H14.1654C13.9009 26.9386 13.6868 26.7243 13.6868 26.4612V24.8006C13.6868 24.5376 13.9008 24.3236 14.1654 24.3236H16.1063V25.6875C16.1063 25.8805 16.2638 26.0421 16.46 26.0421L30.5366 26.0415C30.7327 26.0415 30.8903 25.8828 30.8903 25.6875V24.3236H32.8341C33.0957 24.3236 33.3097 24.5376 33.3097 24.8006V26.4612H33.3096ZM29.3892 30.4597L26.9995 30.4577C27.2135 29.5856 27.3354 28.6339 27.3592 27.6471H30.1768C30.1234 28.6597 29.844 29.6142 29.3892 30.4597ZM25.4718 33.6858C26.0777 33.0032 26.5123 32.0886 26.8034 31.1663L28.9494 31.1678C28.1052 32.3498 26.8866 33.2477 25.4718 33.6858ZM18.0441 31.1597L20.1931 31.1609C20.4916 32.0923 20.9134 32.9938 21.5276 33.6858C20.1069 33.2465 18.8883 32.3462 18.0441 31.1597ZM19.6402 27.6471C19.664 28.6321 19.7859 29.582 19.9969 30.4526L17.6042 30.4505C17.1524 29.6073 16.873 28.6568 16.8225 27.6471H19.6402ZM23.1594 30.455L20.731 30.4529C20.5111 29.6052 20.3744 28.6514 20.3476 27.6472H23.1623L23.1594 30.455ZM23.8192 30.4553L23.8222 27.6472H26.6488C26.625 28.6529 26.4883 29.6079 26.2653 30.4571L23.8192 30.4553ZM23.8162 33.9468C24.7258 33.7438 25.5342 32.683 26.0544 31.1657L23.8193 31.1639L23.8162 33.9468ZM23.1564 33.9408L23.1594 31.1632L20.9451 31.1617C21.4593 32.6672 22.2558 33.7236 23.1564 33.9408ZM16.8166 22.6989L16.8137 25.3335L18.4543 25.3329V22.6621H16.8523C16.8345 22.6621 16.8166 22.6793 16.8166 22.6989ZM19.1974 19.5341H20.7608C20.7816 19.5341 20.7994 19.5516 20.7994 19.5709V25.3329H19.1617V19.5709C19.1617 19.5516 19.1796 19.5341 19.1974 19.5341ZM23.1445 23.6394H21.5068V25.3329H23.1445V23.6394ZM23.8905 20.9025C23.8697 20.9025 23.8549 20.92 23.8549 20.9394V25.3329H25.4896V20.9394C25.4896 20.9201 25.4747 20.9025 25.4539 20.9025H23.8905ZM27.8377 22.6621H26.2V25.3329H27.8377V22.6621ZM28.5451 17.6164C28.5451 17.5965 28.5629 17.5795 28.5807 17.5795H30.1471C30.165 17.5795 30.1828 17.5965 30.1828 17.6164V25.3329H28.5451V17.6164H28.5451ZM32.834 23.6153H30.8902V17.6164C30.8902 17.205 30.5573 16.8709 30.1471 16.8709H28.5807C28.1705 16.8709 27.8376 17.205 27.8376 17.6164V21.9535H26.1999V20.9394C26.1999 20.5283 25.8641 20.1939 25.4539 20.1939H23.8905C23.4803 20.1939 23.1445 20.5283 23.1445 20.9394V22.9308H21.5068V19.5709C21.5068 19.1599 21.1739 18.8255 20.7607 18.8255H19.1973C18.7872 18.8255 18.4543 19.1599 18.4543 19.5709V21.9535H16.8522C16.4421 21.9535 16.1062 22.2878 16.1062 22.6989V23.6152H14.1654C13.5115 23.6152 12.9795 24.1469 12.9795 24.8006V26.4611C12.9795 27.1147 13.5115 27.6471 14.1654 27.6471H16.1122C16.2965 31.5624 19.5392 34.6907 23.4983 34.6907C27.4602 34.6907 30.703 31.5624 30.8873 27.6471H32.8341C33.488 27.6471 34.02 27.1147 34.02 26.4611V24.8006C34.02 24.147 33.4879 23.6153 32.834 23.6153Z" fill="black"/>
</svg>
