<svg width="47" height="46" viewBox="0 0 47 46" fill="none" xmlns="http://www.w3.org/2000/svg">
<rect x="0.5" width="46" height="46" rx="23" fill="#014751" fill-opacity="0.08"/>
<g clip-path="url(#clip0_1_90)">
<path d="M23.4042 26.0469H15.5781C15.4704 26.0469 15.367 26.0897 15.2909 26.1659C15.2147 26.242 15.1719 26.3454 15.1719 26.4531C15.1719 26.5609 15.2147 26.6642 15.2909 26.7404C15.367 26.8166 15.4704 26.8594 15.5781 26.8594H22.8797C23.0293 26.5731 23.2049 26.3011 23.4042 26.0469ZM15.5781 28.8906C15.4704 28.8906 15.367 28.9334 15.2909 29.0096C15.2147 29.0858 15.1719 29.1891 15.1719 29.2969C15.1719 29.4046 15.2147 29.508 15.2909 29.5841C15.367 29.6603 15.4704 29.7031 15.5781 29.7031H22.2984C22.2882 29.5689 22.2812 29.4337 22.2812 29.2969C22.2812 29.16 22.2882 29.0249 22.2984 28.8906H15.5781ZM15.5781 31.7344C15.4704 31.7344 15.367 31.7772 15.2909 31.8534C15.2147 31.9295 15.1719 32.0329 15.1719 32.1406C15.1719 32.2484 15.2147 32.3517 15.2909 32.4279C15.367 32.5041 15.4704 32.5469 15.5781 32.5469H23.4042C23.2049 32.2926 23.0294 32.0206 22.8797 31.7344H15.5781ZM27.5625 24.8281C26.6787 24.8281 25.8147 25.0902 25.0798 25.5812C24.3449 26.0723 23.7721 26.7702 23.4339 27.5868C23.0957 28.4033 23.0072 29.3018 23.1796 30.1687C23.352 31.0355 23.7776 31.8318 24.4026 32.4568C25.0276 33.0817 25.8238 33.5073 26.6907 33.6798C27.5575 33.8522 28.4561 33.7637 29.2726 33.4255C30.0892 33.0872 30.7871 32.5145 31.2781 31.7796C31.7692 31.0447 32.0312 30.1807 32.0312 29.2969C32.0299 28.1121 31.5587 26.9762 30.7209 26.1385C29.8831 25.3007 28.7473 24.8295 27.5625 24.8281ZM27.5625 32.9531C26.8394 32.9531 26.1325 32.7387 25.5312 32.3369C24.9299 31.9352 24.4613 31.3642 24.1846 30.6961C23.9078 30.028 23.8354 29.2928 23.9765 28.5836C24.1176 27.8743 24.4658 27.2229 24.9771 26.7115C25.4885 26.2002 26.14 25.852 26.8492 25.7109C27.5584 25.5698 28.2936 25.6422 28.9617 25.9189C29.6298 26.1957 30.2008 26.6643 30.6026 27.2656C31.0043 27.8668 31.2188 28.5737 31.2188 29.2969C31.2176 30.2662 30.8321 31.1956 30.1466 31.881C29.4612 32.5664 28.5319 32.952 27.5625 32.9531Z" fill="black"/>
<path d="M28.2232 10.3357C27.9851 10.1185 27.6741 9.99867 27.3518 9.99999H14.2873C14.1708 9.99814 14.0552 10.0197 13.9473 10.0635C13.8393 10.1072 13.7413 10.1723 13.659 10.2547C13.5454 10.3857 13.459 10.538 13.4048 10.7028C13.3507 10.8676 13.3299 11.0415 13.3437 11.2144V34.8094C13.3375 34.9604 13.3612 35.1112 13.4136 35.2529C13.4659 35.3947 13.5458 35.5247 13.6487 35.6354C13.7516 35.7461 13.8754 35.8353 14.013 35.8979C14.1506 35.9605 14.2992 35.9952 14.4502 36H32.5034C32.6485 35.9971 32.7916 35.9656 32.9244 35.9071C33.0572 35.8486 33.1771 35.7643 33.2772 35.6592C33.5168 35.416 33.6527 35.0893 33.6562 34.7479L33.6394 15.3122C33.6215 15.095 33.5502 14.8856 33.4317 14.7027C33.3132 14.5198 33.1512 14.369 32.9603 14.264L28.2232 10.3357ZM31.4373 14.0562L28.9048 14.0563C28.8665 14.0604 28.8278 14.0566 28.791 14.0451C28.7542 14.0337 28.7201 14.0149 28.6909 13.9898C28.6616 13.9648 28.6377 13.934 28.6207 13.8995C28.6037 13.8649 28.594 13.8272 28.592 13.7887L28.5811 11.6877L31.4373 14.0562ZM32.6991 35.0883C32.6475 35.1453 32.5762 35.1808 32.4996 35.1875H14.4525C14.2711 35.1875 14.1575 34.9887 14.1562 34.8066V11.2116C14.1405 11.0776 14.1689 10.942 14.2371 10.8256C14.2409 10.8218 14.2499 10.8127 14.2895 10.8125H27.3495C27.4748 10.812 27.5957 10.8592 27.6876 10.9444L27.6889 10.9457C27.7332 10.9856 27.7606 11.0409 27.7656 11.1003L27.7797 13.803C27.7868 14.0921 27.9083 14.3667 28.1174 14.5664C28.3266 14.7661 28.6064 14.8748 28.8955 14.8686L32.3076 14.8684C32.3765 14.8738 32.4433 14.8955 32.5023 14.9316L32.5082 14.9352C32.6741 15.0299 32.8262 15.2046 32.8269 15.3153L32.8437 34.7511C32.8396 34.8777 32.788 34.9981 32.6991 35.0883Z" fill="black"/>
<path d="M28.9844 23.2031V18.9252C28.7632 19.122 28.4777 19.2313 28.1816 19.2327C28.1784 19.2327 28.1751 19.2322 28.1719 19.2322V23.2031H26.9531V18.4309L26.1406 18.8952V23.2031H24.9219V19.5916L24.1094 20.0559V23.2031H22.9033V20.4859C22.6207 20.4602 22.356 20.3363 22.1551 20.1358L22.0908 20.0713V23.2031H20.8594V18.8354L20.8574 18.8334L20.0469 19.2965V23.2031H18.8281V19.9929L18.0156 20.4572V23.2031H16.7969V21.1536L15.9844 21.6179V23.2031H15.5781C15.4704 23.2031 15.367 23.2459 15.2909 23.3221C15.2147 23.3983 15.1719 23.5016 15.1719 23.6094C15.1719 23.7171 15.2147 23.8205 15.2909 23.8966C15.367 23.9728 15.4704 24.0156 15.5781 24.0156H31.4219C31.5296 24.0156 31.633 23.9728 31.7091 23.8966C31.7853 23.8205 31.8281 23.7171 31.8281 23.6094C31.8281 23.5016 31.7853 23.3983 31.7091 23.3221C31.633 23.2459 31.5296 23.2031 31.4219 23.2031H31.0325V16.2969C31.0325 16.1891 30.9897 16.0858 30.9135 16.0096C30.8373 15.9334 30.734 15.8906 30.6262 15.8906C30.5185 15.8906 30.4152 15.9334 30.339 16.0096C30.2628 16.0858 30.22 16.1891 30.22 16.2969V23.2031H28.9844Z" fill="black"/>
<path d="M15.5765 20.9152L20.9942 17.8195L22.7306 19.5623C22.7936 19.6256 22.8757 19.6663 22.9642 19.6782C23.0526 19.6902 23.1425 19.6726 23.22 19.6282L28.0017 16.8958L27.7829 17.9296C27.7606 18.035 27.7811 18.145 27.8399 18.2353C27.8986 18.3256 27.9909 18.3889 28.0963 18.4112C28.1241 18.417 28.1524 18.42 28.1808 18.42C28.2739 18.4199 28.3641 18.3878 28.4364 18.3292C28.5087 18.2705 28.5586 18.1889 28.5779 18.0978L28.9842 16.1778C28.986 16.1689 28.9858 16.1602 28.987 16.1513C28.9892 16.1377 28.9907 16.124 28.9915 16.1103C28.9919 16.0969 28.9916 16.0835 28.9906 16.0702C28.9899 16.0573 28.989 16.0446 28.9871 16.0318C28.9848 16.018 28.9817 16.0044 28.978 15.991C28.9749 15.9791 28.9718 15.9673 28.9675 15.9556C28.9622 15.9415 28.9561 15.9278 28.9492 15.9144C28.9456 15.9071 28.9435 15.8994 28.9393 15.8922C28.9375 15.889 28.935 15.8866 28.9331 15.8835C28.9251 15.8707 28.9163 15.8584 28.9068 15.8466C28.8996 15.8373 28.8929 15.8276 28.885 15.8191C28.8753 15.809 28.865 15.7995 28.8543 15.7905C28.8451 15.7823 28.8362 15.7738 28.8264 15.7665C28.8152 15.7588 28.8036 15.7516 28.7916 15.745C28.7807 15.7387 28.7701 15.7319 28.7587 15.7266C28.747 15.7211 28.7346 15.7171 28.7222 15.7128C28.7093 15.7079 28.6962 15.7036 28.6829 15.7001C28.6792 15.6992 28.6759 15.6974 28.6721 15.6966L26.7847 15.2904C26.6794 15.2677 26.5694 15.2878 26.4788 15.3462C26.3883 15.4047 26.3248 15.4967 26.3021 15.602C26.2794 15.7073 26.2995 15.8173 26.3579 15.9078C26.4164 15.9983 26.5084 16.0619 26.6137 16.0846L27.4636 16.2676L23.0868 18.7685L21.3503 17.0256C21.2873 16.9625 21.2052 16.9218 21.1168 16.9099C21.0283 16.898 20.9384 16.9155 20.861 16.9598L15.1735 20.2098C15.0799 20.2632 15.0114 20.3517 14.9831 20.4556C14.9547 20.5595 14.9689 20.6705 15.0223 20.764C15.0758 20.8576 15.1642 20.926 15.2681 20.9544C15.3721 20.9827 15.483 20.9686 15.5765 20.9152ZM29.3404 27.5538L26.7161 30.1782L25.7846 29.2467C25.7083 29.1707 25.6051 29.1281 25.4975 29.1282C25.3899 29.1283 25.2867 29.1711 25.2106 29.2472C25.1346 29.3233 25.0918 29.4265 25.0917 29.5341C25.0916 29.6417 25.1342 29.7449 25.2101 29.8211L26.4288 31.0399C26.4666 31.0776 26.5113 31.1075 26.5606 31.128C26.6099 31.1484 26.6627 31.1589 26.7161 31.1589C26.7694 31.1589 26.8222 31.1484 26.8715 31.128C26.9208 31.1075 26.9656 31.0776 27.0033 31.0399L29.9149 28.1283C29.9907 28.052 30.0332 27.9488 30.0331 27.8413C30.033 27.7337 29.9902 27.6306 29.9141 27.5546C29.8381 27.4785 29.735 27.4358 29.6274 27.4356C29.5199 27.4355 29.4167 27.478 29.3404 27.5538Z" fill="black"/>
</g>
<defs>
<clipPath id="clip0_1_90">
<rect width="26" height="26" fill="white" transform="translate(10.5 10)"/>
</clipPath>
</defs>
</svg>
