<svg width="47" height="46" viewBox="0 0 47 46" fill="none" xmlns="http://www.w3.org/2000/svg">
<rect x="0.5" width="46" height="46" rx="23" fill="#014751" fill-opacity="0.08"/>
<g clip-path="url(#clip0_1_101)">
<path d="M26.9919 18.3942V17.2866C26.9919 17.1115 26.9223 16.9436 26.7985 16.8198C26.6747 16.696 26.5068 16.6265 26.3317 16.6265C26.1566 16.6265 25.9887 16.696 25.8649 16.8198C25.7411 16.9436 25.6716 17.1115 25.6716 17.2866V18.3942C25.6716 18.5692 25.7411 18.7372 25.8649 18.861C25.9887 18.9848 26.1566 19.0543 26.3317 19.0543C26.5068 19.0543 26.6747 18.9848 26.7985 18.861C26.9223 18.7372 26.9919 18.5692 26.9919 18.3942ZM25.6716 29.4894V30.5969C25.6716 30.772 25.7411 30.9399 25.8649 31.0637C25.9887 31.1875 26.1566 31.257 26.3317 31.257C26.5068 31.257 26.6747 31.1875 26.7985 31.0637C26.9223 30.9399 26.9919 30.772 26.9919 30.5969V29.4894C26.9919 29.3143 26.9223 29.1464 26.7985 29.0226C26.6747 28.8988 26.5068 28.8292 26.3317 28.8292C26.1566 28.8292 25.9887 28.8988 25.8649 29.0226C25.7411 29.1464 25.6716 29.3143 25.6716 29.4894ZM32.9871 24.6017C33.1622 24.6017 33.3301 24.5321 33.4539 24.4083C33.5777 24.2845 33.6473 24.1166 33.6473 23.9415C33.6473 23.7664 33.5777 23.5985 33.4539 23.4747C33.3301 23.3509 33.1622 23.2813 32.9871 23.2813H31.8786C31.7035 23.2813 31.5356 23.3509 31.4118 23.4747C31.288 23.5985 31.2184 23.7664 31.2184 23.9415C31.2184 24.1166 31.288 24.2845 31.4118 24.4083C31.5356 24.5321 31.7035 24.6017 31.8786 24.6017H32.9871ZM29.7879 27.3977C29.6642 27.5215 29.5947 27.6893 29.5947 27.8644C29.5947 28.0394 29.6642 28.2072 29.7879 28.331L30.5709 29.1141C30.6948 29.2379 30.8628 29.3073 31.038 29.3072C31.2131 29.3071 31.381 29.2375 31.5048 29.1136C31.6286 28.9897 31.6981 28.8217 31.698 28.6465C31.6979 28.4714 31.6282 28.3035 31.5043 28.1797L30.7212 27.3977C30.5975 27.2739 30.4296 27.2044 30.2546 27.2044C30.0795 27.2044 29.9117 27.2739 29.7879 27.3977ZM23.0528 25.2344L22.58 24.4158C22.4018 24.1064 22.1201 23.8698 21.7845 23.7478C21.4489 23.6258 21.0811 23.6263 20.7458 23.749L20.1425 23.9694C19.7782 23.6909 19.3795 23.4605 18.9563 23.2839L18.8455 22.6517C18.7843 22.2999 18.6007 21.9811 18.3273 21.7515C18.0538 21.522 17.7081 21.3963 17.3511 21.3969H16.4055C16.0485 21.3963 15.7027 21.522 15.4293 21.7515C15.1559 21.9811 14.9723 22.2999 14.911 22.6517L14.8003 23.2839C14.3771 23.4605 13.9784 23.6909 13.6141 23.9694L13.0103 23.749C12.6751 23.6263 12.3073 23.6259 11.9718 23.7479C11.6363 23.8699 11.3546 24.1064 11.1766 24.4158L10.7028 25.2344C10.5239 25.5434 10.4599 25.9056 10.522 26.2572C10.5842 26.6087 10.7685 26.9271 11.0425 27.156L11.5346 27.5703C11.4767 28.0255 11.4767 28.4862 11.5346 28.9414L11.043 29.3533C10.7683 29.5822 10.5835 29.901 10.5212 30.2531C10.4589 30.6053 10.5232 30.9681 10.7028 31.2774L11.1755 32.096C11.3536 32.4055 11.6354 32.6421 11.971 32.7641C12.3066 32.8861 12.6745 32.8856 13.0098 32.7627L13.613 32.5423C13.9773 32.8209 14.376 33.0513 14.7993 33.2279L14.91 33.8601C14.9714 34.2118 15.155 34.5305 15.4284 34.7601C15.7018 34.9897 16.0475 35.1153 16.4045 35.1149H17.35C17.707 35.1153 18.0527 34.9897 18.3262 34.7601C18.5996 34.5305 18.7832 34.2118 18.8445 33.8601L18.9552 33.2279C19.3785 33.0513 19.7772 32.8209 20.1415 32.5423L20.7453 32.7627C21.0805 32.8855 21.4483 32.8859 21.7838 32.7639C22.1193 32.6419 22.4009 32.4053 22.579 32.096L23.0528 31.2774C23.2317 30.9683 23.2957 30.606 23.2336 30.2543C23.1714 29.9027 22.9871 29.5843 22.713 29.3553L22.2215 28.9414C22.2505 28.7141 22.265 28.4851 22.2652 28.2559C22.265 28.0267 22.2505 27.7977 22.2215 27.5703L22.713 27.1585C22.9876 26.9294 23.1723 26.6106 23.2344 26.2585C23.2966 25.9064 23.2323 25.5436 23.0528 25.2344ZM20.8626 27.4353C20.9723 27.9751 20.9723 28.5315 20.8626 29.0714C20.8387 29.188 20.8469 29.3089 20.8861 29.4213C20.9254 29.5337 20.9943 29.6333 21.0855 29.7097L21.8655 30.3633C21.9011 30.3931 21.9251 30.4345 21.9332 30.4802C21.9412 30.5259 21.9329 30.573 21.9097 30.6131L21.4369 31.4322C21.4139 31.4725 21.3773 31.5033 21.3337 31.5192C21.2901 31.5351 21.2423 31.535 21.1988 31.5191L20.241 31.1697C20.1291 31.1288 20.0082 31.119 19.8912 31.1413C19.7742 31.1635 19.6654 31.2171 19.5763 31.2962C19.1656 31.662 18.6845 31.94 18.1625 32.1132C18.0495 32.1508 17.9488 32.2183 17.871 32.3085C17.7932 32.3987 17.7413 32.5083 17.7207 32.6256L17.5445 33.6285C17.5365 33.6742 17.5127 33.7155 17.4772 33.7454C17.4417 33.7752 17.3969 33.7915 17.3505 33.7915H16.4055C16.3592 33.7915 16.3144 33.7753 16.279 33.7456C16.2435 33.7158 16.2196 33.6746 16.2115 33.629L16.0348 32.6266C16.0142 32.5093 15.9623 32.3997 15.8845 32.3095C15.8068 32.2193 15.706 32.1518 15.593 32.1142C15.071 31.941 14.5899 31.663 14.1793 31.2972C14.0902 31.2181 13.9814 31.1646 13.8643 31.1423C13.7473 31.12 13.6264 31.1299 13.5145 31.1707L12.5568 31.5201C12.5132 31.536 12.4655 31.5359 12.4219 31.5201C12.3783 31.5042 12.3418 31.4734 12.3186 31.4333L11.8469 30.6172C11.8238 30.5771 11.8155 30.5301 11.8236 30.4845C11.8317 30.4389 11.8556 30.3976 11.8911 30.3679L12.6711 29.7143C12.7622 29.6379 12.8311 29.5384 12.8703 29.4261C12.9095 29.3138 12.9177 29.193 12.894 29.0765C12.7844 28.5366 12.7844 27.9802 12.894 27.4403C12.9178 27.3237 12.9097 27.2028 12.8704 27.0905C12.8312 26.9781 12.7623 26.8784 12.6711 26.802L11.8905 26.1485C11.8551 26.1187 11.8312 26.0774 11.8231 26.0318C11.815 25.9862 11.8233 25.9392 11.8464 25.8991L12.3191 25.0805C12.3422 25.0403 12.3788 25.0095 12.4223 24.9936C12.4659 24.9777 12.5137 24.9777 12.5573 24.9937L13.515 25.3431C13.6269 25.3839 13.7478 25.3937 13.8648 25.3715C13.9819 25.3492 14.0907 25.2957 14.1798 25.2166C14.5905 24.8508 15.0715 24.5728 15.5935 24.3995C15.7065 24.3619 15.8073 24.2945 15.885 24.2043C15.9628 24.1141 16.0147 24.0045 16.0353 23.8872L16.2115 22.8837C16.2194 22.838 16.2432 22.7966 16.2787 22.7668C16.3142 22.737 16.3591 22.7206 16.4055 22.7207H17.3511C17.3973 22.7206 17.4422 22.7369 17.4777 22.7666C17.5132 22.7963 17.537 22.8376 17.545 22.8832L17.7207 23.8867C17.7413 24.004 17.7932 24.1135 17.871 24.2037C17.9488 24.294 18.0495 24.3614 18.1625 24.399C18.6845 24.5722 19.1656 24.8503 19.5763 25.2161C19.6654 25.2952 19.7742 25.3487 19.8912 25.371C20.0082 25.3932 20.1291 25.3834 20.241 25.3426L21.1988 24.9932C21.2423 24.9772 21.2901 24.9772 21.3337 24.9931C21.3773 25.009 21.4139 25.0398 21.4369 25.08L21.9097 25.8945C21.9328 25.9347 21.941 25.9817 21.933 26.0273C21.9249 26.0728 21.901 26.1141 21.8655 26.1439L21.0855 26.7974C20.9939 26.874 20.9248 26.974 20.8855 27.0868C20.8463 27.1996 20.8384 27.3209 20.8626 27.4378V27.4353ZM22.4089 20.6793C22.5394 20.6793 22.667 20.6405 22.7755 20.568C22.884 20.4954 22.9686 20.3924 23.0185 20.2718C23.0685 20.1512 23.0816 20.0185 23.0561 19.8904C23.0307 19.7624 22.9678 19.6448 22.8755 19.5525L22.0925 18.7694C22.0317 18.7058 21.9589 18.655 21.8782 18.62C21.7975 18.5849 21.7107 18.5664 21.6227 18.5654C21.5348 18.5644 21.4475 18.5809 21.366 18.6141C21.2846 18.6473 21.2106 18.6965 21.1484 18.7587C21.0862 18.8209 21.037 18.8949 21.0038 18.9763C20.9706 19.0578 20.9541 19.145 20.9551 19.233C20.9561 19.321 20.9746 19.4078 21.0097 19.4885C21.0447 19.5692 21.0955 19.642 21.1591 19.7028L21.9422 20.4858C22.0659 20.6097 22.2338 20.6793 22.4089 20.6793Z" fill="black"/>
<path d="M17.81 26.8471L16.3906 28.2639L15.9443 27.8176C15.8196 27.6984 15.6532 27.6328 15.4807 27.6348C15.3082 27.6367 15.1434 27.7061 15.0214 27.8281C14.8995 27.95 14.8301 28.1149 14.8281 28.2874C14.8261 28.4598 14.8918 28.6262 15.0109 28.7509L15.925 29.665C16.0488 29.7887 16.2166 29.8582 16.3916 29.8582C16.5667 29.8582 16.7345 29.7887 16.8583 29.665L18.7418 27.7815C18.8054 27.7208 18.8562 27.6479 18.8913 27.5672C18.9263 27.4865 18.9449 27.3997 18.9459 27.3117C18.9469 27.2238 18.9303 27.1365 18.8971 27.055C18.8639 26.9736 18.8148 26.8996 18.7526 26.8374C18.6904 26.7752 18.6164 26.7261 18.5349 26.6929C18.4535 26.6597 18.3662 26.6431 18.2782 26.6441C18.1903 26.6451 18.1034 26.6637 18.0227 26.6987C17.9421 26.7337 17.8692 26.7846 17.8084 26.8482L17.81 26.8471ZM24.2434 23.9414C24.2433 24.2566 24.3145 24.5677 24.4516 24.8515C24.5888 25.1352 24.7884 25.3842 25.0355 25.5799C25.2826 25.7755 25.5707 25.9127 25.8784 25.9812C26.186 26.0496 26.5052 26.0476 26.8119 25.9752C27.1186 25.9028 27.405 25.7619 27.6496 25.5631C27.8941 25.3643 28.0905 25.1127 28.224 24.8273C28.3575 24.5418 28.4247 24.2298 28.4205 23.9146C28.4163 23.5995 28.3409 23.2894 28.1998 23.0076L31.2122 19.9952C31.3313 19.8705 31.3969 19.7041 31.3949 19.5317C31.393 19.3592 31.3236 19.1943 31.2016 19.0724C31.0797 18.9504 30.9148 18.881 30.7424 18.8791C30.5699 18.8771 30.4035 18.9427 30.2788 19.0619L27.2664 22.0742C26.9481 21.9146 26.5941 21.8392 26.2384 21.855C25.8826 21.8708 25.5368 21.9774 25.2338 22.1646C24.9308 22.3517 24.6808 22.6133 24.5074 22.9244C24.3341 23.2355 24.2432 23.5858 24.2434 23.9419V23.9414ZM26.3321 23.1731C26.484 23.1731 26.6326 23.2182 26.7589 23.3026C26.8853 23.387 26.9838 23.507 27.0419 23.6474C27.1001 23.7878 27.1153 23.9423 27.0856 24.0913C27.056 24.2404 26.9828 24.3773 26.8754 24.4847C26.7679 24.5922 26.631 24.6653 26.482 24.695C26.3329 24.7246 26.1784 24.7094 26.0381 24.6513C25.8977 24.5931 25.7777 24.4946 25.6932 24.3683C25.6088 24.2419 25.5638 24.0934 25.5638 23.9414C25.564 23.7377 25.6451 23.5425 25.7891 23.3984C25.9331 23.2544 26.1284 23.1734 26.3321 23.1731Z" fill="black"/>
<path d="M34.2656 13.9676C34.1409 13.8484 33.9745 13.7828 33.802 13.7848C33.6296 13.7868 33.4647 13.8562 33.3428 13.9781C33.2208 14.1001 33.1514 14.2649 33.1495 14.4374C33.1475 14.6099 33.2131 14.7762 33.3322 14.901L33.8863 15.455L32.7747 16.5666C31.163 15.1534 29.1309 14.3104 26.9922 14.1677V12.2075H28.9412C29.1163 12.2075 29.2842 12.138 29.408 12.0142C29.5318 11.8904 29.6013 11.7224 29.6013 11.5474C29.6013 11.3723 29.5318 11.2044 29.408 11.0806C29.2842 10.9568 29.1163 10.8872 28.9412 10.8872H23.7229C23.5478 10.8872 23.3799 10.9568 23.2561 11.0806C23.1323 11.2044 23.0628 11.3723 23.0628 11.5474C23.0628 11.7224 23.1323 11.8904 23.2561 12.0142C23.3799 12.138 23.5478 12.2075 23.7229 12.2075H25.6719V14.1672C24.0146 14.278 22.4128 14.8087 21.0171 15.7094C19.6215 16.61 18.478 17.8509 17.6942 19.3154C17.6138 19.4694 17.5974 19.649 17.6485 19.8151C17.6996 19.9812 17.8142 20.1204 17.9673 20.2025C18.1205 20.2847 18.2998 20.3031 18.4665 20.2539C18.6332 20.2046 18.7737 20.0917 18.8576 19.9395C19.5815 18.5868 20.6592 17.456 21.9757 16.668C23.2921 15.88 24.7978 15.4642 26.3321 15.4651C31.0039 15.4651 34.809 19.2676 34.809 23.942C34.809 28.6165 31.006 32.4185 26.3321 32.4185C25.6343 32.419 24.9391 32.3337 24.2622 32.1646C24.0924 32.1219 23.9126 32.1485 23.7623 32.2385C23.6121 32.3284 23.5038 32.4743 23.4611 32.6442C23.4185 32.814 23.4451 32.9938 23.535 33.1441C23.625 33.2943 23.7709 33.4026 23.9408 33.4453C24.7226 33.6409 25.5256 33.7396 26.3315 33.7393C31.7337 33.7393 36.1283 29.3442 36.1283 23.942C36.1306 21.5718 35.2699 19.2819 33.707 17.4999L34.8186 16.3883L35.3726 16.9424C35.4334 17.006 35.5063 17.0568 35.5869 17.0918C35.6676 17.1269 35.7545 17.1454 35.8424 17.1464C35.9304 17.1474 36.0177 17.1309 36.0991 17.0977C36.1806 17.0645 36.2546 17.0153 36.3168 16.9531C36.379 16.8909 36.4281 16.8169 36.4613 16.7355C36.4945 16.654 36.5111 16.5668 36.5101 16.4788C36.5091 16.3908 36.4905 16.304 36.4555 16.2233C36.4204 16.1426 36.3696 16.0698 36.306 16.009L34.2656 13.9676Z" fill="black"/>
</g>
<defs>
<clipPath id="clip0_1_101">
<rect width="26" height="26" fill="white" transform="translate(10.5 10)"/>
</clipPath>
</defs>
</svg>
