<svg width="47" height="47" viewBox="0 0 47 47" fill="none" xmlns="http://www.w3.org/2000/svg">
<rect x="0.5" y="0.5" width="46" height="46" rx="23" fill="#014751" fill-opacity="0.08"/>
<path d="M18.0837 23.7793V28.375C18.0837 28.3748 18.0837 28.3752 18.0837 28.375C18.0839 28.674 18.3263 28.9168 18.6253 28.9166H23.221C23.3647 28.9166 23.5024 28.8596 23.604 28.7579L31.1074 21.253C31.1088 21.2516 31.1108 21.2512 31.1121 21.2498C31.1135 21.2485 31.1138 21.2466 31.1151 21.2452L34.175 18.1848C34.3864 17.9733 34.3864 17.6303 34.175 17.4189L29.5814 12.8253C29.5813 12.8253 29.5814 12.8254 29.5814 12.8253C29.3699 12.6139 29.0268 12.6138 28.8154 12.8253L18.2423 23.3963C18.1407 23.4978 18.0837 23.6356 18.0837 23.7793ZM29.1984 13.9742L33.0261 17.8019L30.7285 20.1L26.9003 16.2718L29.1984 13.9742ZM19.167 24.0035L26.1343 17.0377L29.9626 20.866L22.9967 27.8333H19.167V24.0035ZM33.792 23.5C33.4929 23.5 33.2503 23.7425 33.2503 24.0416V31.0833C33.2488 32.2793 32.2797 33.2484 31.0837 33.25H15.917C14.721 33.2484 13.7518 32.2793 13.7503 31.0833V15.9166C13.7518 14.7206 14.721 13.7515 15.917 13.75H22.9587C23.2578 13.75 23.5003 13.5074 23.5003 13.2083C23.5003 12.9092 23.2578 12.6666 22.9587 12.6666H15.917C14.1229 12.6686 12.669 14.1225 12.667 15.9166V31.0833C12.669 32.8774 14.1229 34.3313 15.917 34.3333H31.0837C32.8778 34.3313 34.3317 32.8774 34.3337 31.0833V24.0416C34.3337 23.7425 34.0911 23.5 33.792 23.5Z" fill="black"/>
</svg>
