<svg width="47" height="46" viewBox="0 0 47 46" fill="none" xmlns="http://www.w3.org/2000/svg">
<rect x="0.5" width="46" height="46" rx="23" fill="white"/>
<path d="M23.5 10.8125C18.196 10.8125 13.4689 14.3075 11.8837 19.3438H11.7188C11.6386 19.3442 11.5603 19.3682 11.4938 19.4129C11.4272 19.4576 11.3754 19.521 11.3447 19.595C11.314 19.6691 11.3059 19.7506 11.3214 19.8292C11.3368 19.9079 11.3751 19.9803 11.4315 20.0372L11.633 20.2387C11.4216 21.144 11.3141 22.0704 11.3125 23C11.3125 23.9307 11.4234 24.8574 11.633 25.7613L11.4315 25.9628C11.3747 26.0196 11.3361 26.092 11.3204 26.1708C11.3047 26.2496 11.3128 26.3312 11.3435 26.4055C11.3742 26.4797 11.4263 26.5431 11.4931 26.5878C11.5599 26.6324 11.6384 26.6562 11.7188 26.6562H11.8837C13.4689 31.6925 18.196 35.1875 23.5 35.1875C30.2202 35.1875 35.6875 29.7202 35.6875 23C35.6875 16.2798 30.2202 10.8125 23.5 10.8125ZM22.0432 23.4062H23.5V22.5938H22.0432L20.5372 21.0878C20.5063 21.0592 20.4711 21.0356 20.4328 21.0179C20.7636 20.5049 21.2176 20.083 21.7534 19.7905C22.2891 19.4981 22.8896 19.3445 23.5 19.3438C25.5158 19.3438 27.1562 20.9842 27.1562 23C27.1562 25.0158 25.5158 26.6562 23.5 26.6562C22.8896 26.6555 22.2891 26.5019 21.7534 26.2095C21.2176 25.917 20.7636 25.4951 20.4328 24.9821C20.4711 24.9645 20.5063 24.9409 20.5372 24.9122L22.0432 23.4062ZM20.0818 21.7812L21.3006 23L20.0818 24.2188H16.1875V21.7812H20.0818ZM13.75 23.4062H15.375V24.2188H13.75V23.4062ZM15.375 22.5938H13.75V21.7812H15.375V22.5938ZM13.5119 25.0312H14.8006L13.9881 25.8438H12.6994L13.5119 25.0312ZM19.5212 25.0312C19.8955 25.7647 20.4651 26.3804 21.1672 26.8105C21.8693 27.2407 22.6766 27.4685 23.5 27.4688C25.9639 27.4688 27.9688 25.4639 27.9688 23C27.9688 20.5361 25.9639 18.5312 23.5 18.5312C22.6766 18.5315 21.8693 18.7593 21.1672 19.1894C20.465 19.6195 19.8954 20.2353 19.5212 20.9688H16.4767C17.3701 17.88 20.2463 15.6875 23.5 15.6875C27.532 15.6875 30.8125 18.968 30.8125 23C30.8125 27.032 27.532 30.3125 23.5 30.3125C20.2463 30.3125 17.3701 28.12 16.4767 25.0312H19.5212ZM13.5119 20.9688L12.6994 20.1562H13.9881L14.8006 20.9688H13.5119ZM12.9375 21.5432V24.4568L12.3155 25.0788C12.0612 23.7046 12.0612 22.2954 12.3155 20.9212L12.9375 21.5432ZM23.5 34.375C18.6339 34.375 14.281 31.2274 12.7291 26.6562H14.1562C14.2639 26.6562 14.3675 26.6136 14.4435 26.5372L15.7061 25.2746C16.7055 28.6964 19.8917 31.125 23.5 31.125C27.9801 31.125 31.625 27.4801 31.625 23C31.625 18.5199 27.9801 14.875 23.5 14.875C19.8917 14.875 16.7055 17.3036 15.7061 20.7254L14.4435 19.4628C14.4058 19.425 14.361 19.395 14.3117 19.3746C14.2624 19.3542 14.2096 19.3437 14.1562 19.3438H12.7291C14.281 14.7726 18.6339 11.625 23.5 11.625C29.7721 11.625 34.875 16.7279 34.875 23C34.875 29.2721 29.7721 34.375 23.5 34.375Z" fill="black"/>
</svg>
