<svg width="46" height="47" viewBox="0 0 46 47" fill="none" xmlns="http://www.w3.org/2000/svg">
<rect y="0.5" width="46" height="46" rx="23" fill="white"/>
<g clip-path="url(#clip0_1_227)">
<path d="M18.4107 23.4963C18.4107 22.6929 18.1724 21.9074 17.7261 21.2393C17.2797 20.5713 16.6452 20.0506 15.9029 19.7431C15.1605 19.4356 14.3437 19.3551 13.5557 19.5119C12.7676 19.6687 12.0437 20.0556 11.4756 20.6237C10.9074 21.1919 10.5205 21.9157 10.3638 22.7038C10.207 23.4918 10.2875 24.3087 10.5949 25.051C10.9024 25.7933 11.4231 26.4278 12.0912 26.8742C12.7593 27.3206 13.5447 27.5588 14.3482 27.5588C15.4253 27.5576 16.4579 27.1292 17.2195 26.3676C17.9811 25.606 18.4095 24.5734 18.4107 23.4963ZM14.3482 26.7463C13.7054 26.7463 13.0771 26.5557 12.5426 26.1986C12.0081 25.8415 11.5916 25.3339 11.3456 24.7401C11.0996 24.1462 11.0353 23.4927 11.1607 22.8623C11.2861 22.2319 11.5956 21.6528 12.0501 21.1982C12.5046 20.7437 13.0837 20.4342 13.7142 20.3088C14.3446 20.1834 14.9981 20.2477 15.5919 20.4937C16.1858 20.7397 16.6934 21.1563 17.0505 21.6907C17.4076 22.2252 17.5982 22.8536 17.5982 23.4963C17.5972 24.358 17.2545 25.1841 16.6452 25.7934C16.0359 26.4026 15.2099 26.7454 14.3482 26.7463ZM35.8983 21.0054C35.8914 21.0013 35.8844 20.9975 35.8773 20.9939L33.0097 19.5283C32.8922 19.4674 32.7618 19.4356 32.6295 19.4356C32.4971 19.4356 32.3667 19.4674 32.2492 19.5283L29.3817 20.9939C29.3747 20.9975 29.3678 21.0013 29.3609 21.0053C29.2451 21.0773 29.149 21.177 29.0813 21.2954C29.0136 21.4138 28.9765 21.5472 28.9732 21.6836V25.0632C28.9764 25.1996 29.0136 25.3329 29.0812 25.4513C29.1489 25.5697 29.2451 25.6693 29.3609 25.7412C29.3609 25.7412 32.2346 27.4283 32.236 27.4291C32.356 27.4967 32.4913 27.5323 32.6291 27.5323C32.7668 27.5324 32.9022 27.497 33.0222 27.4295L35.8978 25.7414C36.0137 25.6695 36.1098 25.5698 36.1775 25.4514C36.2453 25.333 36.2824 25.1996 36.2857 25.0632V21.6836C36.2824 21.5473 36.2453 21.4139 36.1777 21.2955C36.1101 21.1772 36.014 21.0774 35.8983 21.0054ZM32.2232 26.4795L29.7867 25.0489C29.7876 25.0489 29.7873 25.0477 29.7857 25.0446V22.1386L32.2232 23.4358V26.4795ZM32.6261 22.7299L30.2473 21.4639L32.6273 20.2474L32.6295 20.2463L32.6316 20.2474L34.9654 21.4403L32.6261 22.7299ZM35.4732 25.0475C35.4727 25.046 35.4719 25.0472 35.4698 25.0505L33.0357 26.4795V23.4318L35.4732 22.0881V25.0475Z" fill="black"/>
<path d="M14.4864 23.1217H14.2085C14.1722 23.1238 14.1359 23.1181 14.1021 23.1049C14.0682 23.0917 14.0376 23.0714 14.0123 23.0453C13.9871 23.0192 13.9677 22.9879 13.9556 22.9537C13.9435 22.9194 13.939 22.8829 13.9423 22.8467C13.94 22.8115 13.9454 22.7761 13.9581 22.7431C13.9707 22.7101 13.9904 22.6802 14.0156 22.6554C14.0409 22.6307 14.0712 22.6117 14.1045 22.5998C14.1378 22.5878 14.1733 22.5832 14.2085 22.5862H14.9881C15.0958 22.5862 15.1991 22.5434 15.2753 22.4672C15.3515 22.391 15.3943 22.2877 15.3943 22.1799C15.3943 22.0722 15.3515 21.9689 15.2753 21.8927C15.1991 21.8165 15.0958 21.7737 14.9881 21.7737H14.9214V21.4651C14.9214 21.3574 14.8786 21.2541 14.8024 21.1779C14.7262 21.1017 14.6229 21.0589 14.5152 21.0589C14.4074 21.0589 14.3041 21.1017 14.2279 21.1779C14.1517 21.2541 14.1089 21.3574 14.1089 21.4651V21.7832C13.8383 21.7985 13.5842 21.9182 13.4002 22.1171C13.2233 22.3187 13.1271 22.5785 13.1298 22.8467C13.1262 22.9898 13.1516 23.1321 13.2044 23.265C13.2573 23.398 13.3364 23.5189 13.4372 23.6205C13.538 23.7221 13.6582 23.8023 13.7908 23.8562C13.9233 23.9101 14.0654 23.9366 14.2085 23.9342H14.4864C14.522 23.9295 14.5581 23.9329 14.5922 23.9442C14.6262 23.9554 14.6573 23.9742 14.6831 23.9991C14.7089 24.024 14.7287 24.0544 14.7412 24.0881C14.7536 24.1217 14.7582 24.1577 14.7548 24.1934C14.7574 24.2297 14.7523 24.2661 14.7399 24.3003C14.7274 24.3345 14.7079 24.3656 14.6825 24.3917C14.6572 24.4178 14.6266 24.4382 14.5928 24.4516C14.559 24.465 14.5227 24.4711 14.4864 24.4696H13.7068C13.5991 24.4696 13.4957 24.5124 13.4196 24.5885C13.3434 24.6647 13.3006 24.7681 13.3006 24.8758C13.3006 24.9835 13.3434 25.0869 13.4196 25.1631C13.4957 25.2392 13.5991 25.2821 13.7068 25.2821H14.1089V25.5276C14.1089 25.6354 14.1517 25.7387 14.2279 25.8149C14.3041 25.8911 14.4074 25.9339 14.5152 25.9339C14.6229 25.9339 14.7262 25.8911 14.8024 25.8149C14.8786 25.7387 14.9214 25.6354 14.9214 25.5276V25.198C15.1158 25.1124 15.2807 24.9715 15.3955 24.7929C15.5104 24.6143 15.5701 24.4058 15.5673 24.1934C15.5715 24.0508 15.5463 23.9088 15.4934 23.7763C15.4404 23.6437 15.3608 23.5235 15.2594 23.423C15.1581 23.3225 15.0372 23.2439 14.9042 23.1921C14.7712 23.1402 14.629 23.1163 14.4864 23.1217ZM15.6648 17.9147C17.4839 15.9133 20.1696 14.7664 23.0362 14.7664C23.0416 14.7664 23.0474 14.7664 23.0529 14.7665C25.6564 14.7431 28.1649 15.7441 30.037 17.5536C29.9417 17.5514 29.8487 17.5828 29.7743 17.6423C29.6999 17.7019 29.6489 17.7857 29.6301 17.8791C29.6114 17.9725 29.6261 18.0696 29.6718 18.1532C29.7175 18.2368 29.7911 18.3017 29.8799 18.3364L31.0591 18.8007C31.1253 18.8267 31.1972 18.8349 31.2676 18.8245C31.3379 18.8141 31.4043 18.7853 31.4601 18.7412C31.5158 18.697 31.559 18.639 31.5853 18.5729C31.6117 18.5068 31.6202 18.435 31.61 18.3646L31.4325 17.1361C31.42 17.0489 31.3795 16.9681 31.3171 16.9059C31.2546 16.8438 31.1736 16.8037 31.0863 16.7917C30.9991 16.7796 30.9102 16.7964 30.8333 16.8394C30.7564 16.8823 30.6956 16.9492 30.66 17.0298C28.6326 15.0371 25.8969 13.9307 23.0541 13.954C23.048 13.9539 23.0422 13.9539 23.0362 13.9539C19.9413 13.9539 17.0362 15.1978 15.0635 17.3682C15.027 17.4074 14.9988 17.4535 14.9804 17.5037C14.9619 17.554 14.9538 17.6074 14.9563 17.6609C14.9589 17.7144 14.9721 17.7668 14.9952 17.8151C15.0183 17.8634 15.0509 17.9066 15.0909 17.9421C15.1736 18.008 15.2774 18.0415 15.383 18.0365C15.4886 18.0314 15.5888 17.9882 15.6648 17.9147ZM30.9073 29.0869C29.0882 31.0882 26.4024 32.2351 23.5359 32.2351H23.5192C20.9156 32.2583 18.4073 31.2573 16.535 29.4479C16.6303 29.4501 16.7233 29.4187 16.7977 29.3592C16.8721 29.2996 16.9232 29.2158 16.942 29.1224C16.9607 29.0289 16.946 28.9319 16.9003 28.8482C16.8546 28.7646 16.781 28.6997 16.6922 28.665L15.5129 28.2008C15.4467 28.1747 15.3749 28.1665 15.3045 28.177C15.2341 28.1874 15.1677 28.2162 15.112 28.2604C15.0562 28.3045 15.013 28.3625 14.9867 28.4286C14.9604 28.4947 14.9519 28.5666 14.9621 28.637L15.1396 29.8655C15.1521 29.9527 15.1926 30.0334 15.255 30.0956C15.3175 30.1577 15.3985 30.1978 15.4858 30.2098C15.573 30.2218 15.6618 30.2051 15.7387 30.1621C15.8157 30.1192 15.8765 30.0524 15.9121 29.9718C17.9396 31.9644 20.6752 33.0707 23.5179 33.0476H23.5359C26.6308 33.0476 29.5359 31.8037 31.5085 29.6332C31.5444 29.5937 31.5721 29.5475 31.5902 29.4973C31.6082 29.4471 31.6162 29.3939 31.6136 29.3406C31.6111 29.2873 31.5981 29.2351 31.5753 29.1868C31.5526 29.1386 31.5205 29.0953 31.4811 29.0594C31.4416 29.0235 31.3954 28.9958 31.3452 28.9778C31.295 28.9597 31.2418 28.9518 31.1885 28.9543C31.1352 28.9569 31.0829 28.9699 31.0347 28.9926C30.9865 29.0154 30.9432 29.0474 30.9073 29.0869Z" fill="black"/>
<path d="M19.8326 18.2214C20.0569 18.2214 20.2388 18.0396 20.2388 17.8152C20.2388 17.5908 20.0569 17.4089 19.8326 17.4089C19.6082 17.4089 19.4263 17.5908 19.4263 17.8152C19.4263 18.0396 19.6082 18.2214 19.8326 18.2214Z" fill="black"/>
<path d="M21.5101 17.6099C21.7345 17.6099 21.9163 17.428 21.9163 17.2036C21.9163 16.9793 21.7345 16.7974 21.5101 16.7974C21.2857 16.7974 21.1038 16.9793 21.1038 17.2036C21.1038 17.428 21.2857 17.6099 21.5101 17.6099Z" fill="black"/>
<path d="M23.2828 17.4067C23.5071 17.4067 23.689 17.2249 23.689 17.0005C23.689 16.7761 23.5071 16.5942 23.2828 16.5942C23.0584 16.5942 22.8765 16.7761 22.8765 17.0005C22.8765 17.2249 23.0584 17.4067 23.2828 17.4067Z" fill="black"/>
<path d="M25.0582 17.6099C25.2825 17.6099 25.4644 17.428 25.4644 17.2036C25.4644 16.9792 25.2825 16.7974 25.0582 16.7974C24.8338 16.7974 24.6519 16.9792 24.6519 17.2036C24.6519 17.428 24.8338 17.6099 25.0582 17.6099Z" fill="black"/>
<path d="M26.7388 18.217C26.9632 18.217 27.1451 18.0352 27.1451 17.8108C27.1451 17.5864 26.9632 17.4045 26.7388 17.4045C26.5145 17.4045 26.3326 17.5864 26.3326 17.8108C26.3326 18.0352 26.5145 18.217 26.7388 18.217Z" fill="black"/>
<path d="M19.8326 29.7996C20.0569 29.7996 20.2388 29.6177 20.2388 29.3933C20.2388 29.1689 20.0569 28.9871 19.8326 28.9871C19.6082 28.9871 19.4263 29.1689 19.4263 29.3933C19.4263 29.6177 19.6082 29.7996 19.8326 29.7996Z" fill="black"/>
<path d="M21.5101 30.411C21.7345 30.411 21.9163 30.2291 21.9163 30.0048C21.9163 29.7804 21.7345 29.5985 21.5101 29.5985C21.2857 29.5985 21.1038 29.7804 21.1038 30.0048C21.1038 30.2291 21.2857 30.411 21.5101 30.411Z" fill="black"/>
<path d="M23.2857 30.6099C23.5101 30.6099 23.692 30.428 23.692 30.2036C23.692 29.9792 23.5101 29.7974 23.2857 29.7974C23.0613 29.7974 22.8795 29.9792 22.8795 30.2036C22.8795 30.428 23.0613 30.6099 23.2857 30.6099Z" fill="black"/>
<path d="M25.0582 30.4067C25.2825 30.4067 25.4644 30.2249 25.4644 30.0005C25.4644 29.7761 25.2825 29.5942 25.0582 29.5942C24.8338 29.5942 24.6519 29.7761 24.6519 30.0005C24.6519 30.2249 24.8338 30.4067 25.0582 30.4067Z" fill="black"/>
<path d="M26.7388 29.8037C26.9632 29.8037 27.1451 29.6218 27.1451 29.3975C27.1451 29.1731 26.9632 28.9912 26.7388 28.9912C26.5145 28.9912 26.3326 29.1731 26.3326 29.3975C26.3326 29.6218 26.5145 29.8037 26.7388 29.8037Z" fill="black"/>
</g>
<defs>
<clipPath id="clip0_1_227">
<rect width="26" height="26" fill="white" transform="translate(10.2857 10.5)"/>
</clipPath>
</defs>
</svg>
