<svg width="46" height="47" viewBox="0 0 46 47" fill="none" xmlns="http://www.w3.org/2000/svg">
<rect y="0.5" width="46" height="46" rx="23" fill="white"/>
<g clip-path="url(#clip0_1_247)">
<path d="M30.8696 27.6464C30.8696 27.31 31.1426 27.037 31.479 27.037C31.8154 27.037 32.0884 27.31 32.0884 27.6464V35.2771H32.298C32.6344 35.2771 32.9074 35.5501 32.9074 35.8865C32.9074 36.2228 32.6344 36.4958 32.298 36.4958H31.479H27.4363H24.8782H20.8355H18.2773H14.2346H13.4156C13.0792 36.4958 12.8062 36.2228 12.8062 35.8865C12.8062 35.5501 13.0792 35.2771 13.4156 35.2771H13.6253V29.2234C13.6253 28.8871 13.8983 28.6141 14.2346 28.6141H18.2773C18.6137 28.6141 18.8867 28.8871 18.8867 29.2234V35.2771H20.2261V24.207C20.2261 23.8706 20.4991 23.5976 20.8355 23.5976H24.8782C25.2145 23.5976 25.4875 23.8706 25.4875 24.207V35.2771H26.827V17.5574C26.827 17.221 27.1 16.948 27.4363 16.948H31.479C31.8154 16.948 32.0884 17.221 32.0884 17.5574V24.3691C32.0884 24.7055 31.8154 24.9785 31.479 24.9785C31.1426 24.9785 30.8696 24.7055 30.8696 24.3691V18.1668H28.0457V35.2771H30.8696V27.6464ZM25.1073 11.884C24.7721 11.8962 24.4906 11.6342 24.4796 11.299C24.4674 10.9638 24.7307 10.6823 25.0646 10.6713L29.6813 10.5068C29.8666 10.4897 30.0579 10.5568 30.192 10.7055C30.3456 10.8773 30.3846 11.1125 30.3139 11.3149L29.0902 15.7963C29.0025 16.1192 28.6685 16.3106 28.3455 16.2228C28.0226 16.1351 27.8312 15.8011 27.919 15.4782L28.6112 12.9443L15.5643 24.6604C15.3145 24.8846 14.9306 24.8651 14.7051 24.6153C14.4796 24.3654 14.5003 23.9815 14.7502 23.756L28.0872 11.7792L25.1085 11.8852L25.1073 11.884ZM17.6691 35.2771V29.8328H14.8452V35.2771H17.6691ZM24.2688 35.2771V24.8164H21.4449V35.2771H24.2688Z" fill="black"/>
</g>
<defs>
<clipPath id="clip0_1_247">
<rect width="26" height="26" fill="white" transform="translate(9.85715 10.5)"/>
</clipPath>
</defs>
</svg>
