<svg width="46" height="46" viewBox="0 0 46 46" fill="none" xmlns="http://www.w3.org/2000/svg">
<rect width="46" height="46" rx="23" fill="white"/>
<path d="M32.3415 27.0876C32.0733 26.9543 31.748 27.0638 31.6147 27.332C30.6681 29.24 29.1227 30.7854 27.2147 31.7319C22.392 34.1246 16.5428 32.1546 14.1501 27.332C11.7575 22.5092 13.7275 16.66 18.5502 14.2674C23.3729 11.8747 29.2221 13.8447 31.6147 18.6674C31.7483 18.9335 32.0714 19.0422 32.3386 18.9108C32.6073 18.7787 32.7181 18.4537 32.5859 18.185C30.7567 14.4988 26.9967 12.1677 22.8817 12.1685C16.8997 12.1696 12.0513 17.0197 12.0524 23.0017C12.0536 28.9836 16.9037 33.832 22.8856 33.8309C27.0033 33.8445 30.7684 31.5092 32.5859 27.8144C32.7191 27.5462 32.6097 27.2207 32.3415 27.0876ZM33.1487 22.458H20.373L24.3022 18.5287C24.3049 18.5262 24.3074 18.5237 24.31 18.521C24.5194 18.3074 24.5159 17.9645 24.3022 17.7551C24.0886 17.5457 23.7457 17.5492 23.5363 17.7629L18.6824 22.6168C18.6824 22.6168 18.6824 22.6167 18.6824 22.6168C18.471 22.8282 18.4709 23.1713 18.6824 23.3827L23.5363 28.2365C23.6378 28.3383 23.7756 28.3953 23.9192 28.3952C24.0629 28.3951 24.2006 28.3382 24.3021 28.2366C24.5137 28.0251 24.5137 27.6821 24.3022 27.4706L20.373 23.5413H33.1487C33.4479 23.5413 33.6904 23.2988 33.6904 22.9997C33.6904 22.7005 33.4479 22.458 33.1487 22.458Z" fill="black"/>
</svg>
