<svg width="46" height="46" viewBox="0 0 46 46" fill="none" xmlns="http://www.w3.org/2000/svg">
<rect width="46" height="46" rx="23" fill="white"/>
<path d="M25.6693 11.9289H13.5052C12.8323 11.9313 12.1878 12.2007 11.7133 12.6779C11.2388 13.155 10.973 13.801 10.9744 14.4739V27.969C10.9729 28.1006 11.0228 28.2275 11.1137 28.3227L16.5345 33.9124C16.5813 33.9615 16.6375 34.0007 16.6997 34.0277C16.762 34.0547 16.829 34.0689 16.8968 34.0695H25.6693C27.0693 34.0695 28.1892 32.9245 28.1892 31.5244V14.4739C28.1892 13.0739 27.0693 11.9289 25.6693 11.9289ZM16.408 32.3035L12.6746 28.4835H15.8812C16.1612 28.4835 16.408 28.7047 16.408 28.9847V32.3035ZM27.1736 31.5244C27.1756 31.7233 27.1385 31.9205 27.0643 32.105C26.9901 32.2895 26.8802 32.4575 26.7411 32.5995C26.6019 32.7416 26.4362 32.8548 26.2532 32.9327C26.0703 33.0107 25.8739 33.0518 25.675 33.0539H17.4236V28.9847C17.4236 28.1446 16.7212 27.4679 15.8812 27.4679H11.99V14.4739C11.9884 14.0703 12.1471 13.6825 12.4312 13.3957C12.7153 13.109 13.1016 12.9467 13.5052 12.9445H25.6693C26.0708 12.9471 26.4548 13.109 26.7369 13.3947C27.0191 13.6804 27.1761 14.0664 27.1736 14.4679V31.5244H27.1736Z" fill="black"/>
<path d="M24.5724 18.5304H14.9138C14.7791 18.5304 14.6499 18.5839 14.5547 18.6792C14.4595 18.7744 14.406 18.9036 14.406 19.0382C14.406 19.1729 14.4595 19.3021 14.5547 19.3973C14.6499 19.4925 14.7791 19.5461 14.9138 19.5461H24.5724C24.7071 19.5461 24.8362 19.4925 24.9315 19.3973C25.0267 19.3021 25.0802 19.1729 25.0802 19.0382C25.0802 18.9036 25.0267 18.7744 24.9315 18.6792C24.8362 18.5839 24.7071 18.5304 24.5724 18.5304Z" fill="black"/>
<path d="M24.5724 21.5773H14.9138C14.7791 21.5773 14.6499 21.6308 14.5547 21.726C14.4595 21.8213 14.406 21.9504 14.406 22.0851C14.406 22.2198 14.4595 22.349 14.5547 22.4442C14.6499 22.5394 14.7791 22.5929 14.9138 22.5929H24.5724C24.7071 22.5929 24.8362 22.5394 24.9315 22.4442C25.0267 22.349 25.0802 22.2198 25.0802 22.0851C25.0802 21.9504 25.0267 21.8213 24.9315 21.726C24.8362 21.6308 24.7071 21.5773 24.5724 21.5773Z" fill="black"/>
<path d="M24.5724 24.6242H14.9138C14.7791 24.6242 14.6499 24.6777 14.5547 24.7729C14.4595 24.8681 14.406 24.9973 14.406 25.132C14.406 25.2667 14.4595 25.3958 14.5547 25.4911C14.6499 25.5863 14.7791 25.6398 14.9138 25.6398H24.5724C24.7071 25.6398 24.8362 25.5863 24.9315 25.4911C25.0267 25.3958 25.0802 25.2667 25.0802 25.132C25.0802 24.9973 25.0267 24.8681 24.9315 24.7729C24.8362 24.6777 24.7071 24.6242 24.5724 24.6242Z" fill="black"/>
<path d="M14.9138 16.7023H19.373C19.5077 16.7023 19.6369 16.6488 19.7321 16.5536C19.8274 16.4583 19.8809 16.3292 19.8809 16.1945C19.8809 16.0598 19.8274 15.9306 19.7321 15.8354C19.6369 15.7402 19.5077 15.6867 19.373 15.6867H14.9138C14.7791 15.6867 14.6499 15.7402 14.5547 15.8354C14.4595 15.9306 14.406 16.0598 14.406 16.1945C14.406 16.3292 14.4595 16.4583 14.5547 16.5536C14.6499 16.6488 14.7791 16.7023 14.9138 16.7023Z" fill="black"/>
<path d="M32.4782 12.4282C31.8792 12.429 31.305 12.6672 30.8813 13.0905C30.4576 13.5139 30.2191 14.088 30.2179 14.6869L30.2077 30.0229C30.2077 30.1045 30.2273 30.185 30.265 30.2575L32.0277 33.6476C32.0706 33.73 32.1352 33.7991 32.2147 33.8474C32.2941 33.8956 32.3853 33.9211 32.4782 33.9211C32.5711 33.9211 32.6623 33.8956 32.7417 33.8474C32.8212 33.7991 32.8859 33.73 32.9287 33.6476L34.6914 30.2575C34.7291 30.185 34.7487 30.1045 34.7487 30.0229L34.7385 14.6869C34.7373 14.088 34.4988 13.5139 34.0751 13.0905C33.6514 12.6671 33.0771 12.429 32.4782 12.4282ZM33.7248 17.5662H31.2315L31.2318 17.0584H33.7244L33.7248 17.5662ZM33.7256 18.5818L33.7327 29.4998H31.2237L31.231 18.5818H33.7256ZM32.4783 13.4438C32.8081 13.4443 33.1244 13.5755 33.3577 13.8087C33.591 14.0419 33.7224 14.3581 33.723 14.688L33.7238 16.0428H31.2327L31.2335 14.6878C31.2342 14.358 31.3655 14.0418 31.5989 13.8086C31.8322 13.5755 32.1484 13.4443 32.4783 13.4438ZM32.4783 32.2969L31.552 30.5154H33.4045L32.4783 32.2969Z" fill="black"/>
</svg>
